<svg width="30" height="30" viewBox="0 0 30 30" fill="none" xmlns="http://www.w3.org/2000/svg">
<circle cx="14.5624" cy="14.5624" r="14.5624" fill="#F9F9F9"/>
<path d="M14.5624 18.3792V18.8959C14.5624 19.994 14.122 20.4344 13.018 20.4344H10.2289C9.37745 20.4344 8.69043 19.7474 8.69043 18.8959V16.1068C8.69043 15.0028 9.13082 14.5624 10.2289 14.5624H10.7456V16.6176C10.7456 17.5924 11.5324 18.3792 12.5072 18.3792H14.5624Z" fill="url(#paint0_linear_120_617)"/>
<path d="M17.4979 15.4432V15.9541C17.4979 16.8055 16.805 17.4984 15.9536 17.4984H13.1644C12.0664 17.4984 11.626 17.058 11.626 15.9541V13.1649C11.626 12.3135 12.313 11.6265 13.1644 11.6265H13.6812V13.6816C13.6812 14.6564 14.468 15.4432 15.4427 15.4432H17.4979Z" fill="url(#paint1_linear_120_617)"/>
<path d="M20.4335 10.2289V13.0181C20.4335 14.122 19.9931 14.5624 18.8891 14.5624H16.1C15.0019 14.5624 14.5615 14.122 14.5615 13.0181V10.2289C14.5615 9.13089 15.0019 8.69049 16.1 8.69049H18.8891C19.9931 8.69049 20.4335 9.13089 20.4335 10.2289Z" fill="url(#paint2_linear_120_617)"/>
<defs>
<linearGradient id="paint0_linear_120_617" x1="15.4538" y1="57.1883" x2="0.367208" y2="55.993" gradientUnits="userSpaceOnUse">
<stop offset="0.25249" stop-color="#59A49E"/>
<stop offset="0.637527" stop-color="#A6D8D2"/>
</linearGradient>
<linearGradient id="paint1_linear_120_617" x1="11.7434" y1="17.381" x2="22.3129" y2="7.75099" gradientUnits="userSpaceOnUse">
<stop offset="0.138287" stop-color="#FFB23F"/>
<stop offset="0.467052" stop-color="#FAD8A5"/>
</linearGradient>
<linearGradient id="paint2_linear_120_617" x1="21.3249" y1="51.3164" x2="6.2383" y2="50.1211" gradientUnits="userSpaceOnUse">
<stop offset="0.25249" stop-color="#59A49E"/>
<stop offset="0.637527" stop-color="#A6D8D2"/>
</linearGradient>
</defs>
</svg>
