<svg width="30" height="30" viewBox="0 0 30 30" fill="none" xmlns="http://www.w3.org/2000/svg">
<circle cx="15.0487" cy="14.967" r="14.5624" fill="#F9F9F9"/>
<path d="M17.8382 10.0111V9.09512C17.8382 8.85437 17.6386 8.65472 17.3978 8.65472C17.1571 8.65472 16.9574 8.85437 16.9574 9.09512V9.97591H13.1407V9.09512C13.1407 8.85437 12.941 8.65472 12.7003 8.65472C12.4595 8.65472 12.2599 8.85437 12.2599 9.09512V10.0111C10.6745 10.1579 9.90523 11.1033 9.78779 12.5067C9.77605 12.677 9.91698 12.8179 10.0814 12.8179H20.0167C20.187 12.8179 20.3279 12.6711 20.3103 12.5067C20.1929 11.1033 19.4236 10.1579 17.8382 10.0111Z" fill="url(#paint0_linear_120_626)"/>
<path d="M19.1593 16.7286C17.8616 16.7286 16.8105 17.7797 16.8105 19.0774C16.8105 19.5178 16.9339 19.9347 17.1511 20.287C17.5563 20.9682 18.302 21.4262 19.1593 21.4262C20.0166 21.4262 20.7624 20.9682 21.1675 20.287C21.3848 19.9347 21.5081 19.5178 21.5081 19.0774C21.5081 17.7797 20.457 16.7286 19.1593 16.7286ZM20.3748 18.8249L19.1241 19.9817C19.0419 20.058 18.9303 20.0991 18.8246 20.0991C18.7131 20.0991 18.6015 20.058 18.5134 19.9699L17.9321 19.3886C17.7618 19.2183 17.7618 18.9365 17.9321 18.7662C18.1024 18.5959 18.3842 18.5959 18.5545 18.7662L18.8364 19.0481L19.7759 18.179C19.952 18.0146 20.2339 18.0263 20.3983 18.2025C20.5627 18.3787 20.551 18.6546 20.3748 18.8249Z" fill="url(#paint1_linear_120_626)"/>
<path d="M19.7469 13.6987H10.3518C10.0289 13.6987 9.76465 13.963 9.76465 14.2859V17.903C9.76465 19.6646 10.6454 20.839 12.7006 20.839H15.5955C16.0006 20.839 16.2825 20.4456 16.1533 20.0639C16.0359 19.7233 15.9361 19.3475 15.9361 19.0774C15.9361 17.2982 17.3864 15.8479 19.1656 15.8479C19.3359 15.8479 19.5062 15.8596 19.6706 15.889C20.0229 15.9418 20.34 15.6658 20.34 15.3135V14.2918C20.3341 13.963 20.0699 13.6987 19.7469 13.6987ZM13.4111 18.6135C13.2996 18.7192 13.1469 18.7838 12.9942 18.7838C12.8415 18.7838 12.6889 18.7192 12.5773 18.6135C12.4716 18.502 12.407 18.3493 12.407 18.1966C12.407 18.044 12.4716 17.8913 12.5773 17.7797C12.636 17.7269 12.6947 17.6858 12.7711 17.6564C12.9883 17.5625 13.2467 17.6153 13.4111 17.7797C13.5168 17.8913 13.5814 18.044 13.5814 18.1966C13.5814 18.3493 13.5168 18.502 13.4111 18.6135ZM13.4111 16.5584C13.3818 16.5819 13.3524 16.6053 13.323 16.6288C13.2878 16.6523 13.2526 16.6699 13.2173 16.6817C13.1821 16.6993 13.1469 16.711 13.1117 16.7169C13.0705 16.7228 13.0294 16.7286 12.9942 16.7286C12.8415 16.7286 12.6889 16.6641 12.5773 16.5584C12.4716 16.4468 12.407 16.2941 12.407 16.1415C12.407 15.9888 12.4716 15.8361 12.5773 15.7245C12.7124 15.5895 12.9179 15.5249 13.1117 15.566C13.1469 15.5719 13.1821 15.5836 13.2173 15.6012C13.2526 15.613 13.2878 15.6306 13.323 15.6541C13.3524 15.6776 13.3818 15.7011 13.4111 15.7245C13.5168 15.8361 13.5814 15.9888 13.5814 16.1415C13.5814 16.2941 13.5168 16.4468 13.4111 16.5584ZM15.4663 16.5584C15.3547 16.6641 15.2021 16.7286 15.0494 16.7286C14.8967 16.7286 14.7441 16.6641 14.6325 16.5584C14.5268 16.4468 14.4622 16.2941 14.4622 16.1415C14.4622 15.9888 14.5268 15.8361 14.6325 15.7245C14.8556 15.5073 15.249 15.5073 15.4663 15.7245C15.572 15.8361 15.6366 15.9888 15.6366 16.1415C15.6366 16.2941 15.572 16.4468 15.4663 16.5584Z" fill="url(#paint2_linear_120_626)"/>
<defs>
<linearGradient id="paint0_linear_120_626" x1="21.9096" y1="38.8765" x2="-4.25139" y2="33.6365" gradientUnits="userSpaceOnUse">
<stop offset="0.25249" stop-color="#59A49E"/>
<stop offset="0.637527" stop-color="#A6D8D2"/>
</linearGradient>
<linearGradient id="paint1_linear_120_626" x1="22.2213" y1="50.8294" x2="10.152" y2="49.8731" gradientUnits="userSpaceOnUse">
<stop offset="0.25249" stop-color="#59A49E"/>
<stop offset="0.637527" stop-color="#A6D8D2"/>
</linearGradient>
<linearGradient id="paint2_linear_120_626" x1="9.97616" y1="20.6962" x2="22.3257" y2="4.03137" gradientUnits="userSpaceOnUse">
<stop offset="0.138287" stop-color="#FFB23F"/>
<stop offset="0.467052" stop-color="#FAD8A5"/>
</linearGradient>
</defs>
</svg>
