<svg width="30" height="30" viewBox="0 0 30 30" fill="none" xmlns="http://www.w3.org/2000/svg">
<circle cx="14.5624" cy="14.5624" r="14.5624" fill="#F9F9F9"/>
<path d="M17.4983 9.8649H11.6264C9.86482 9.8649 8.69043 10.7457 8.69043 12.8009V14.8913C8.69043 15.1085 8.91356 15.2436 9.10734 15.1555C9.68279 14.8913 10.3463 14.7915 11.0451 14.9148C12.5894 15.1907 13.7227 16.6235 13.6816 18.1913C13.6757 18.4379 13.6405 18.6787 13.5759 18.9136C13.5289 19.0956 13.6757 19.2659 13.8636 19.2659H17.4983C19.2599 19.2659 20.4343 18.3851 20.4343 16.3299V12.8009C20.4343 10.7457 19.2599 9.8649 17.4983 9.8649ZM14.5624 16.0304C13.752 16.0304 13.0944 15.3728 13.0944 14.5624C13.0944 13.7521 13.752 13.0945 14.5624 13.0945C15.3727 13.0945 16.0303 13.7521 16.0303 14.5624C16.0303 15.3728 15.3727 16.0304 14.5624 16.0304ZM18.8195 15.7368C18.8195 15.9776 18.6199 16.1772 18.3791 16.1772C18.1384 16.1772 17.9387 15.9776 17.9387 15.7368V13.3881C17.9387 13.1473 18.1384 12.9477 18.3791 12.9477C18.6199 12.9477 18.8195 13.1473 18.8195 13.3881V15.7368Z" fill="url(#paint0_linear_120_635)"/>
<path d="M10.4513 15.7368C9.15362 15.7368 8.10254 16.7879 8.10254 18.0856C8.10254 18.526 8.22585 18.9429 8.44311 19.2952C8.84827 19.9764 9.59401 20.4344 10.4513 20.4344C11.3086 20.4344 12.0544 19.9764 12.4595 19.2952C12.6768 18.9429 12.8001 18.526 12.8001 18.0856C12.8001 16.7879 11.749 15.7368 10.4513 15.7368ZM11.6081 17.8918L10.3574 19.0486C10.2752 19.1249 10.1636 19.166 10.0579 19.166C9.94633 19.166 9.83476 19.1249 9.74668 19.0368L9.16536 18.4555C8.99507 18.2852 8.99507 18.0034 9.16536 17.8331C9.33565 17.6628 9.6175 17.6628 9.78778 17.8331L10.0696 18.115L11.0091 17.2459C11.1853 17.0815 11.4672 17.0932 11.6316 17.2694C11.796 17.4456 11.7842 17.7274 11.6081 17.8918Z" fill="url(#paint1_linear_120_635)"/>
<defs>
<linearGradient id="paint0_linear_120_635" x1="8.92531" y1="19.0779" x2="25.7791" y2="-0.104719" gradientUnits="userSpaceOnUse">
<stop offset="0.138287" stop-color="#FFB23F"/>
<stop offset="0.467052" stop-color="#FAD8A5"/>
</linearGradient>
<linearGradient id="paint1_linear_120_635" x1="13.5132" y1="49.8375" x2="1.44396" y2="48.8813" gradientUnits="userSpaceOnUse">
<stop offset="0.25249" stop-color="#40B4A6"/>
<stop offset="0.637527" stop-color="#A6D8D2"/>
</linearGradient>
</defs>
</svg>
