<svg width="62" height="20" viewBox="0 0 62 20" fill="none" xmlns="http://www.w3.org/2000/svg">
<path d="M15.4563 9.67737L15.0157 11.3215H6.41352L4.07227 2.58618H5.7756L7.67458 9.67737H15.4563Z" fill="#AD7E5C"/>
<path d="M14.751 12.3081L14.3103 13.9522H4.5129L4.07227 12.3081H14.751Z" fill="#518581"/>
<path d="M14.0462 14.9386L13.6055 16.5827H6.85469L6.41406 14.9386H14.0462Z" fill="#A6D8D1"/>
<path d="M25.3672 5.73852H26.9005V12.7848H30.4969V14.1377H25.3672V5.73852Z" fill="#151411"/>
<path d="M33.2249 14.273C32.5785 14.273 32.0637 14.1152 31.6803 13.7995C31.3045 13.4838 31.1166 13.0554 31.1166 12.5143C31.1166 11.9957 31.2933 11.5672 31.6465 11.229C31.9998 10.8908 32.5297 10.6653 33.2362 10.5526L35.0626 10.2594V10.0565C35.0626 9.78593 34.9574 9.5642 34.7469 9.39133C34.544 9.21846 34.2734 9.13203 33.9352 9.13203C33.6195 9.13203 33.3376 9.21846 33.0896 9.39133C32.8491 9.55669 32.6725 9.77841 32.5597 10.0565L31.3534 9.47025C31.5338 8.98922 31.8645 8.60214 32.3455 8.30902C32.8265 8.01589 33.3752 7.86933 33.9915 7.86933C34.4876 7.86933 34.9273 7.96328 35.3106 8.15118C35.7014 8.33157 36.0021 8.59087 36.2125 8.92909C36.4305 9.2598 36.5395 9.63561 36.5395 10.0565V14.1377H35.1415V13.4838C34.6605 14.01 34.0216 14.273 33.2249 14.273ZM32.6499 12.4579C32.6499 12.6683 32.7288 12.8375 32.8867 12.9652C33.0445 13.0855 33.2474 13.1456 33.4955 13.1456C33.954 13.1456 34.3298 13.0028 34.6229 12.7172C34.916 12.4241 35.0626 12.0633 35.0626 11.6349V11.3869L33.518 11.6462C33.2249 11.7063 33.0069 11.804 32.8641 11.9393C32.7213 12.0671 32.6499 12.2399 32.6499 12.4579Z" fill="#151411"/>
<path d="M37.9045 5.60323H39.3814V14.1377H37.9045V5.60323Z" fill="#151411"/>
<path d="M42.6053 14.273C41.9589 14.273 41.4441 14.1152 41.0608 13.7995C40.685 13.4838 40.4971 13.0554 40.4971 12.5143C40.4971 11.9957 40.6737 11.5672 41.0269 11.229C41.3802 10.8908 41.9101 10.6653 42.6166 10.5526L44.443 10.2594V10.0565C44.443 9.78593 44.3378 9.5642 44.1273 9.39133C43.9244 9.21846 43.6538 9.13203 43.3156 9.13203C42.9999 9.13203 42.7181 9.21846 42.47 9.39133C42.2295 9.55669 42.0529 9.77841 41.9401 10.0565L40.7338 9.47025C40.9142 8.98922 41.2449 8.60214 41.7259 8.30902C42.207 8.01589 42.7556 7.86933 43.372 7.86933C43.868 7.86933 44.3077 7.96328 44.691 8.15118C45.0819 8.33157 45.3825 8.59087 45.593 8.92909C45.8109 9.2598 45.9199 9.63561 45.9199 10.0565V14.1377H44.5219V13.4838C44.0409 14.01 43.402 14.273 42.6053 14.273ZM42.0303 12.4579C42.0303 12.6683 42.1093 12.8375 42.2671 12.9652C42.4249 13.0855 42.6279 13.1456 42.8759 13.1456C43.3344 13.1456 43.7102 13.0028 44.0033 12.7172C44.2964 12.4241 44.443 12.0633 44.443 11.6349V11.3869L42.8984 11.6462C42.6053 11.7063 42.3873 11.804 42.2445 11.9393C42.1017 12.0671 42.0303 12.2399 42.0303 12.4579Z" fill="#151411"/>
<path d="M49.5849 14.2618C48.9686 14.2618 48.4236 14.1152 47.9501 13.8221C47.4841 13.5289 47.1534 13.1268 46.958 12.6157L48.0516 12.052C48.2169 12.3827 48.4349 12.642 48.7055 12.8299C48.9836 13.0103 49.288 13.1005 49.6187 13.1005C49.9043 13.1005 50.126 13.0441 50.2839 12.9314C50.4492 12.8111 50.5319 12.6496 50.5319 12.4466C50.5319 12.2737 50.4643 12.1309 50.329 12.0182C50.1937 11.8979 50.017 11.819 49.7991 11.7814L48.7957 11.6123C48.2771 11.477 47.875 11.2478 47.5894 10.9246C47.3113 10.5939 47.1722 10.2068 47.1722 9.76338C47.1722 9.39509 47.2699 9.06814 47.4653 8.78253C47.6608 8.4894 47.9313 8.26392 48.2771 8.10608C48.6303 7.94825 49.0287 7.86933 49.4721 7.86933C50.0358 7.86933 50.5319 8.00462 50.9603 8.27519C51.3887 8.53826 51.7006 8.90655 51.8961 9.38006L50.8025 9.94376C50.6822 9.6807 50.4981 9.47025 50.25 9.31241C50.002 9.15458 49.7277 9.07566 49.427 9.07566C49.179 9.07566 48.9798 9.13203 48.8295 9.24477C48.6867 9.35751 48.6153 9.50407 48.6153 9.68446C48.6153 10.0152 48.8633 10.2369 49.3594 10.3496L50.3402 10.53C50.8588 10.6728 51.261 10.9058 51.5466 11.229C51.8322 11.5522 51.975 11.9355 51.975 12.379C51.975 12.7473 51.8735 13.0742 51.6706 13.3598C51.4752 13.6454 51.1971 13.8672 50.8363 14.025C50.4755 14.1828 50.0584 14.2618 49.5849 14.2618Z" fill="#151411"/>
<path d="M53.0762 8.00462H54.5531V14.1377H53.0762V8.00462ZM52.9634 6.3135C52.9634 6.04292 53.0386 5.83247 53.1889 5.68215C53.3392 5.53183 53.5459 5.45667 53.809 5.45667C54.0795 5.45667 54.29 5.53183 54.4403 5.68215C54.5906 5.83247 54.6658 6.04292 54.6658 6.3135C54.6658 6.57656 54.5906 6.78325 54.4403 6.93357C54.2975 7.0839 54.0871 7.15906 53.809 7.15906C53.5459 7.15906 53.3392 7.0839 53.1889 6.93357C53.0386 6.78325 52.9634 6.57656 52.9634 6.3135Z" fill="#151411"/>
<path d="M57.7769 14.273C57.1305 14.273 56.6157 14.1152 56.2324 13.7995C55.8566 13.4838 55.6687 13.0554 55.6687 12.5143C55.6687 11.9957 55.8453 11.5672 56.1986 11.229C56.5518 10.8908 57.0817 10.6653 57.7882 10.5526L59.6146 10.2594V10.0565C59.6146 9.78593 59.5094 9.5642 59.2989 9.39133C59.096 9.21846 58.8254 9.13203 58.4872 9.13203C58.1715 9.13203 57.8897 9.21846 57.6416 9.39133C57.4011 9.55669 57.2245 9.77841 57.1118 10.0565L55.9054 9.47025C56.0858 8.98922 56.4165 8.60214 56.8976 8.30902C57.3786 8.01589 57.9273 7.86933 58.5436 7.86933C59.0396 7.86933 59.4793 7.96328 59.8626 8.15118C60.2535 8.33157 60.5541 8.59087 60.7646 8.92909C60.9825 9.2598 61.0915 9.63561 61.0915 10.0565V14.1377H59.6935V13.4838C59.2125 14.01 58.5736 14.273 57.7769 14.273ZM57.2019 12.4579C57.2019 12.6683 57.2809 12.8375 57.4387 12.9652C57.5965 13.0855 57.7995 13.1456 58.0475 13.1456C58.506 13.1456 58.8818 13.0028 59.1749 12.7172C59.4681 12.4241 59.6146 12.0633 59.6146 11.6349V11.3869L58.0701 11.6462C57.7769 11.7063 57.559 11.804 57.4162 11.9393C57.2734 12.0671 57.2019 12.2399 57.2019 12.4579Z" fill="#151411"/>
</svg>
